<mxfile host="65bd71144e">
    <diagram id="-bkZbNj34qqzSk38TdDf" name="Page-1">
        <mxGraphModel dx="872" dy="520" grid="1" gridSize="10" guides="1" tooltips="1" connect="1" arrows="1" fold="1" page="1" pageScale="1" pageWidth="850" pageHeight="1100" math="0" shadow="0">
            <root>
                <mxCell id="0"/>
                <mxCell id="1" parent="0"/>
                <mxCell id="6" value="W" style="whiteSpace=wrap;html=1;aspect=fixed;" parent="1" vertex="1">
                    <mxGeometry x="60" y="20" width="80" height="80" as="geometry"/>
                </mxCell>
                <mxCell id="7" value="input" style="whiteSpace=wrap;html=1;aspect=fixed;" parent="1" vertex="1">
                    <mxGeometry x="200" y="20" width="80" height="80" as="geometry"/>
                </mxCell>
                <mxCell id="8" value="W_i" style="text;html=1;align=center;verticalAlign=middle;resizable=0;points=[];autosize=1;strokeColor=none;fillColor=none;" parent="1" vertex="1">
                    <mxGeometry x="80" y="100" width="40" height="30" as="geometry"/>
                </mxCell>
                <mxCell id="9" value="W_o" style="text;html=1;align=center;verticalAlign=middle;resizable=0;points=[];autosize=1;strokeColor=none;fillColor=none;" parent="1" vertex="1">
                    <mxGeometry x="10" y="45" width="50" height="30" as="geometry"/>
                </mxCell>
                <mxCell id="10" value="W_i" style="text;html=1;align=center;verticalAlign=middle;resizable=0;points=[];autosize=1;strokeColor=none;fillColor=none;" parent="1" vertex="1">
                    <mxGeometry x="160" y="45" width="40" height="30" as="geometry"/>
                </mxCell>
                <mxCell id="11" value="N" style="text;html=1;align=center;verticalAlign=middle;resizable=0;points=[];autosize=1;strokeColor=none;fillColor=none;" parent="1" vertex="1">
                    <mxGeometry x="225" y="100" width="30" height="30" as="geometry"/>
                </mxCell>
                <mxCell id="12" value="output" style="whiteSpace=wrap;html=1;aspect=fixed;" parent="1" vertex="1">
                    <mxGeometry x="350" y="20" width="80" height="80" as="geometry"/>
                </mxCell>
                <mxCell id="13" value="W_o" style="text;html=1;align=center;verticalAlign=middle;resizable=0;points=[];autosize=1;strokeColor=none;fillColor=none;" parent="1" vertex="1">
                    <mxGeometry x="300" y="45" width="50" height="30" as="geometry"/>
                </mxCell>
                <mxCell id="14" value="N" style="text;html=1;align=center;verticalAlign=middle;resizable=0;points=[];autosize=1;strokeColor=none;fillColor=none;" parent="1" vertex="1">
                    <mxGeometry x="375" y="100" width="30" height="30" as="geometry"/>
                </mxCell>
                <mxCell id="18" value="W_i is a multiple of k" style="text;html=1;align=center;verticalAlign=middle;resizable=0;points=[];autosize=1;strokeColor=none;fillColor=none;" parent="1" vertex="1">
                    <mxGeometry x="520" y="80" width="130" height="30" as="geometry"/>
                </mxCell>
                <mxCell id="19" value="k is the number of products that share an exponent,&lt;br&gt;can be contiguous or scattered" style="text;html=1;align=center;verticalAlign=middle;resizable=0;points=[];autosize=1;strokeColor=none;fillColor=none;" parent="1" vertex="1">
                    <mxGeometry x="520" y="120" width="300" height="40" as="geometry"/>
                </mxCell>
                <mxCell id="21" value="W_exp" style="whiteSpace=wrap;html=1;aspect=fixed;" vertex="1" parent="1">
                    <mxGeometry x="60" y="160" width="80" height="80" as="geometry"/>
                </mxCell>
                <mxCell id="22" value="input_exp" style="whiteSpace=wrap;html=1;aspect=fixed;" vertex="1" parent="1">
                    <mxGeometry x="200" y="160" width="80" height="80" as="geometry"/>
                </mxCell>
            </root>
        </mxGraphModel>
    </diagram>
</mxfile>